<svg id="visual" viewBox="0 0 1920 1280" width="1920" height="1280" xmlns="http://www.w3.org/2000/svg" xmlns:xlink="http://www.w3.org/1999/xlink" version="1.1"><rect x="0" y="0" width="1920" height="1280" fill="#000000"></rect><g fill="none" stroke="#080706" stroke-width="1"><circle r="35" cx="883" cy="1108"></circle><circle r="1" cx="442" cy="252"></circle><circle r="1" cx="751" cy="429"></circle><circle r="2" cx="1183" cy="322"></circle><circle r="14" cx="319" cy="956"></circle><circle r="23" cx="1700" cy="1116"></circle><circle r="14" cx="1850" cy="528"></circle><circle r="17" cx="1325" cy="500"></circle><circle r="25" cx="399" cy="372"></circle><circle r="3" cx="1437" cy="1194"></circle><circle r="16" cx="853" cy="936"></circle><circle r="26" cx="798" cy="1209"></circle><circle r="10" cx="365" cy="841"></circle><circle r="10" cx="1712" cy="1024"></circle><circle r="5" cx="599" cy="541"></circle><circle r="12" cx="1542" cy="309"></circle><circle r="26" cx="42" cy="909"></circle><circle r="16" cx="1122" cy="1177"></circle><circle r="15" cx="1593" cy="665"></circle><circle r="27" cx="1256" cy="1096"></circle><circle r="14" cx="360" cy="235"></circle><circle r="8" cx="131" cy="989"></circle><circle r="7" cx="908" cy="435"></circle><circle r="10" cx="334" cy="509"></circle><circle r="10" cx="1416" cy="217"></circle><circle r="20" cx="1655" cy="960"></circle><circle r="27" cx="1349" cy="1082"></circle><circle r="8" cx="1776" cy="1257"></circle><circle r="31" cx="1538" cy="394"></circle><circle r="33" cx="1801" cy="843"></circle><circle r="25" cx="1501" cy="646"></circle><circle r="26" cx="264" cy="287"></circle><circle r="21" cx="477" cy="1143"></circle><circle r="21" cx="648" cy="729"></circle><circle r="4" cx="246" cy="1198"></circle><circle r="5" cx="929" cy="65"></circle><circle r="9" cx="872" cy="330"></circle><circle r="13" cx="1859" cy="908"></circle><circle r="22" cx="1770" cy="627"></circle><circle r="28" cx="1386" cy="551"></circle><circle r="12" cx="1411" cy="795"></circle><circle r="0" cx="752" cy="553"></circle><circle r="23" cx="1022" cy="1058"></circle><circle r="17" cx="1882" cy="76"></circle><circle r="25" cx="1137" cy="586"></circle><circle r="26" cx="666" cy="155"></circle><circle r="24" cx="413" cy="969"></circle><circle r="7" cx="892" cy="1272"></circle><circle r="11" cx="230" cy="1116"></circle><circle r="1" cx="179" cy="778"></circle><circle r="3" cx="1580" cy="117"></circle><circle r="32" cx="856" cy="96"></circle><circle r="29" cx="1221" cy="3"></circle><circle r="2" cx="254" cy="478"></circle><circle r="24" cx="741" cy="766"></circle><circle r="24" cx="1614" cy="1168"></circle><circle r="22" cx="615" cy="213"></circle><circle r="20" cx="168" cy="895"></circle><circle r="23" cx="1294" cy="1226"></circle><circle r="12" cx="8" cy="842"></circle><circle r="18" cx="430" cy="702"></circle><circle r="12" cx="1714" cy="558"></circle><circle r="33" cx="714" cy="18"></circle><circle r="1" cx="517" cy="214"></circle><circle r="1" cx="336" cy="95"></circle><circle r="26" cx="424" cy="147"></circle><circle r="8" cx="512" cy="706"></circle><circle r="0" cx="843" cy="824"></circle><circle r="11" cx="629" cy="977"></circle><circle r="31" cx="51" cy="541"></circle><circle r="29" cx="809" cy="183"></circle><circle r="6" cx="85" cy="253"></circle><circle r="26" cx="1599" cy="1259"></circle><circle r="17" cx="1421" cy="1031"></circle><circle r="33" cx="1913" cy="1051"></circle><circle r="15" cx="1832" cy="318"></circle><circle r="20" cx="385" cy="449"></circle><circle r="7" cx="702" cy="924"></circle><circle r="0" cx="610" cy="367"></circle><circle r="30" cx="1726" cy="152"></circle><circle r="26" cx="1286" cy="1005"></circle><circle r="17" cx="512" cy="604"></circle><circle r="19" cx="1778" cy="488"></circle><circle r="33" cx="1236" cy="423"></circle><circle r="5" cx="101" cy="814"></circle><circle r="14" cx="1674" cy="814"></circle><circle r="24" cx="676" cy="1180"></circle><circle r="7" cx="305" cy="1058"></circle><circle r="2" cx="376" cy="633"></circle><circle r="24" cx="466" cy="28"></circle><circle r="22" cx="1520" cy="196"></circle><circle r="15" cx="744" cy="250"></circle><circle r="1" cx="922" cy="732"></circle><circle r="16" cx="825" cy="648"></circle><circle r="0" cx="161" cy="297"></circle><circle r="7" cx="186" cy="675"></circle><circle r="11" cx="1007" cy="448"></circle><circle r="23" cx="549" cy="19"></circle><circle r="4" cx="1790" cy="58"></circle><circle r="27" cx="1556" cy="820"></circle><circle r="7" cx="445" cy="1229"></circle><circle r="9" cx="151" cy="520"></circle><circle r="27" cx="845" cy="1011"></circle><circle r="6" cx="1862" cy="1161"></circle><circle r="27" cx="151" cy="2"></circle><circle r="24" cx="1261" cy="251"></circle><circle r="21" cx="1075" cy="798"></circle><circle r="27" cx="1456" cy="1097"></circle><circle r="21" cx="809" cy="1121"></circle><circle r="26" cx="181" cy="194"></circle><circle r="27" cx="1508" cy="997"></circle><circle r="30" cx="1072" cy="1271"></circle><circle r="8" cx="1596" cy="24"></circle><circle r="26" cx="1887" cy="426"></circle><circle r="9" cx="974" cy="965"></circle><circle r="9" cx="51" cy="82"></circle><circle r="22" cx="888" cy="165"></circle><circle r="4" cx="1417" cy="406"></circle><circle r="18" cx="1513" cy="1146"></circle><circle r="31" cx="1374" cy="285"></circle><circle r="26" cx="1152" cy="174"></circle><circle r="19" cx="66" cy="1210"></circle><circle r="27" cx="272" cy="563"></circle><circle r="13" cx="1644" cy="260"></circle><circle r="24" cx="682" cy="1047"></circle><circle r="23" cx="1209" cy="760"></circle><circle r="10" cx="3" cy="176"></circle><circle r="7" cx="1483" cy="732"></circle><circle r="10" cx="1629" cy="595"></circle><circle r="18" cx="1909" cy="628"></circle><circle r="21" cx="691" cy="317"></circle><circle r="10" cx="1406" cy="2"></circle><circle r="22" cx="1361" cy="689"></circle><circle r="25" cx="1582" cy="466"></circle><circle r="24" cx="1325" cy="190"></circle><circle r="4" cx="1208" cy="936"></circle><circle r="31" cx="489" cy="380"></circle><circle r="31" cx="1134" cy="412"></circle><circle r="23" cx="1481" cy="853"></circle><circle r="11" cx="1731" cy="275"></circle><circle r="7" cx="798" cy="16"></circle><circle r="4" cx="564" cy="1051"></circle><circle r="4" cx="1843" cy="164"></circle><circle r="17" cx="1309" cy="113"></circle><circle r="19" cx="540" cy="980"></circle><circle r="2" cx="1019" cy="665"></circle><circle r="20" cx="512" cy="476"></circle><circle r="3" cx="52" cy="1103"></circle><circle r="7" cx="1111" cy="31"></circle><circle r="15" cx="1301" cy="912"></circle><circle r="16" cx="149" cy="94"></circle><circle r="12" cx="239" cy="138"></circle><circle r="32" cx="307" cy="408"></circle><circle r="17" cx="366" cy="1141"></circle><circle r="12" cx="1165" cy="1011"></circle><circle r="32" cx="38" cy="738"></circle><circle r="20" cx="522" cy="903"></circle><circle r="33" cx="1043" cy="103"></circle><circle r="19" cx="1038" cy="1186"></circle><circle r="7" cx="206" cy="1274"></circle><circle r="17" cx="1789" cy="1051"></circle><circle r="26" cx="918" cy="544"></circle><circle r="2" cx="908" cy="887"></circle><circle r="3" cx="1255" cy="631"></circle><circle r="21" cx="1185" cy="1215"></circle><circle r="7" cx="1294" cy="764"></circle><circle r="2" cx="107" cy="361"></circle><circle r="27" cx="419" cy="568"></circle><circle r="13" cx="589" cy="1170"></circle><circle r="10" cx="1621" cy="386"></circle><circle r="16" cx="1615" cy="1079"></circle><circle r="6" cx="1367" cy="1168"></circle><circle r="24" cx="911" cy="260"></circle><circle r="22" cx="260" cy="640"></circle><circle r="33" cx="1810" cy="708"></circle><circle r="20" cx="1239" cy="840"></circle><circle r="21" cx="381" cy="11"></circle><circle r="10" cx="53" cy="982"></circle><circle r="27" cx="623" cy="830"></circle><circle r="11" cx="557" cy="301"></circle><circle r="33" cx="718" cy="1262"></circle><circle r="2" cx="258" cy="741"></circle><circle r="5" cx="128" cy="1152"></circle><circle r="11" cx="1312" cy="336"></circle><circle r="22" cx="1914" cy="776"></circle><circle r="28" cx="1452" cy="291"></circle><circle r="2" cx="1459" cy="931"></circle><circle r="18" cx="1718" cy="3"></circle><circle r="23" cx="107" cy="708"></circle><circle r="8" cx="448" cy="1043"></circle><circle r="17" cx="1067" cy="317"></circle><circle r="14" cx="1785" cy="218"></circle><circle r="32" cx="211" cy="1013"></circle><circle r="30" cx="344" cy="1234"></circle><circle r="16" cx="1659" cy="107"></circle><circle r="6" cx="917" cy="1035"></circle><circle r="32" cx="1145" cy="249"></circle><circle r="5" cx="102" cy="436"></circle><circle r="28" cx="1079" cy="981"></circle><circle r="6" cx="1010" cy="241"></circle><circle r="9" cx="1695" cy="418"></circle><circle r="25" cx="1020" cy="524"></circle><circle r="17" cx="1529" cy="566"></circle><circle r="29" cx="251" cy="64"></circle><circle r="9" cx="111" cy="585"></circle><circle r="9" cx="1108" cy="718"></circle><circle r="33" cx="1021" cy="15"></circle><circle r="4" cx="18" cy="344"></circle><circle r="28" cx="1682" cy="1214"></circle><circle r="30" cx="526" cy="1258"></circle><circle r="26" cx="767" cy="1046"></circle><circle r="13" cx="1683" cy="663"></circle><circle r="1" cx="1421" cy="628"></circle><circle r="8" cx="965" cy="322"></circle><circle r="2" cx="846" cy="573"></circle><circle r="16" cx="1188" cy="1140"></circle><circle r="21" cx="1785" cy="964"></circle><circle r="8" cx="1227" cy="1276"></circle><circle r="0" cx="505" cy="822"></circle><circle r="17" cx="1420" cy="485"></circle><circle r="10" cx="551" cy="144"></circle><circle r="8" cx="1496" cy="469"></circle><circle r="10" cx="1782" cy="1128"></circle><circle r="9" cx="282" cy="210"></circle><circle r="3" cx="1417" cy="1269"></circle><circle r="16" cx="971" cy="603"></circle><circle r="28" cx="1704" cy="891"></circle><circle r="20" cx="1357" cy="854"></circle><circle r="24" cx="1495" cy="9"></circle><circle r="32" cx="10" cy="432"></circle><circle r="24" cx="714" cy="650"></circle><circle r="10" cx="1425" cy="111"></circle><circle r="13" cx="1224" cy="525"></circle><circle r="0" cx="354" cy="728"></circle><circle r="5" cx="252" cy="889"></circle><circle r="12" cx="599" cy="673"></circle><circle r="26" cx="663" cy="470"></circle><circle r="21" cx="1760" cy="351"></circle><circle r="18" cx="913" cy="649"></circle><circle r="15" cx="963" cy="139"></circle><circle r="31" cx="1102" cy="871"></circle><circle r="3" cx="1619" cy="187"></circle><circle r="22" cx="1890" cy="246"></circle><circle r="32" cx="10" cy="3"></circle><circle r="23" cx="102" cy="177"></circle><circle r="24" cx="1612" cy="875"></circle><circle r="16" cx="1906" cy="346"></circle><circle r="7" cx="912" cy="1186"></circle><circle r="28" cx="1675" cy="493"></circle><circle r="12" cx="1152" cy="97"></circle><circle r="9" cx="982" cy="1128"></circle><circle r="5" cx="1001" cy="840"></circle><circle r="28" cx="1316" cy="13"></circle><circle r="0" cx="1506" cy="87"></circle><circle r="21" cx="621" cy="80"></circle><circle r="29" cx="52" cy="632"></circle><circle r="5" cx="633" cy="1107"></circle><circle r="31" cx="672" cy="583"></circle><circle r="31" cx="817" cy="730"></circle><circle r="8" cx="924" cy="808"></circle><circle r="33" cx="764" cy="868"></circle><circle r="13" cx="757" cy="82"></circle><circle r="1" cx="1889" cy="1271"></circle><circle r="9" cx="974" cy="1265"></circle><circle r="28" cx="1741" cy="735"></circle><circle r="29" cx="180" cy="380"></circle><circle r="10" cx="827" cy="484"></circle><circle r="23" cx="1129" cy="492"></circle><circle r="24" cx="424" cy="795"></circle><circle r="33" cx="603" cy="1259"></circle><circle r="32" cx="128" cy="1264"></circle><circle r="27" cx="1517" cy="1272"></circle><circle r="22" cx="1362" cy="976"></circle><circle r="11" cx="1529" cy="1070"></circle><circle r="4" cx="439" cy="891"></circle><circle r="22" cx="1660" cy="734"></circle><circle r="13" cx="142" cy="1078"></circle><circle r="15" cx="1001" cy="759"></circle><circle r="6" cx="789" cy="343"></circle><circle r="2" cx="1582" cy="747"></circle><circle r="13" cx="1311" cy="580"></circle><circle r="1" cx="1594" cy="1007"></circle><circle r="10" cx="1162" cy="663"></circle><circle r="6" cx="1164" cy="828"></circle><circle r="8" cx="17" cy="1266"></circle><circle r="1" cx="759" cy="971"></circle><circle r="3" cx="1331" cy="415"></circle><circle r="10" cx="1229" cy="157"></circle><circle r="14" cx="1114" cy="1098"></circle><circle r="0" cx="346" cy="311"></circle><circle r="25" cx="1900" cy="974"></circle><circle r="30" cx="1551" cy="919"></circle><circle r="12" cx="294" cy="821"></circle><circle r="20" cx="190" cy="600"></circle><circle r="15" cx="1236" cy="81"></circle><circle r="33" cx="1849" cy="5"></circle><circle r="5" cx="567" cy="780"></circle><circle r="5" cx="842" cy="399"></circle><circle r="22" cx="292" cy="1"></circle><circle r="31" cx="603" cy="904"></circle><circle r="6" cx="1814" cy="407"></circle><circle r="20" cx="1055" cy="598"></circle><circle r="2" cx="1676" cy="326"></circle><circle r="9" cx="1069" cy="182"></circle><circle r="3" cx="1031" cy="916"></circle><circle r="31" cx="5" cy="1167"></circle><circle r="17" cx="881" cy="8"></circle><circle r="12" cx="727" cy="1111"></circle><circle r="3" cx="589" cy="453"></circle><circle r="5" cx="837" cy="258"></circle></g></svg>