<?xml version="1.0" standalone="no"?>
<!DOCTYPE svg PUBLIC "-//W3C//DTD SVG 20010904//EN"
 "http://www.w3.org/TR/2001/REC-SVG-20010904/DTD/svg10.dtd">
<svg version="1.0" xmlns="http://www.w3.org/2000/svg"
 width="225.000000pt" height="225.000000pt" viewBox="0 0 225.000000 225.000000"
 preserveAspectRatio="xMidYMid meet">

<g transform="translate(0.000000,225.000000) scale(0.100000,-0.100000)"
fill="#000000" stroke="none">
<path d="M964 2145 c-282 -43 -538 -208 -698 -449 -273 -410 -219 -952 129
-1301 349 -348 891 -402 1301 -129 476 316 605 955 288 1430 -223 337 -620
512 -1020 449z m401 -105 c386 -102 673 -447 702 -840 l6 -85 -164 3 -164 3 3
59 c4 65 -18 155 -49 207 -18 28 -19 37 -8 75 17 60 17 197 0 228 -27 50 -42
60 -91 60 -60 0 -131 -22 -183 -56 l-41 -27 -70 17 c-138 34 -285 30 -395 -9
-33 -11 -39 -10 -71 11 -54 37 -135 64 -195 64 -51 0 -55 -2 -76 -36 -28 -46
-36 -155 -16 -234 13 -54 13 -56 -22 -130 -31 -64 -35 -84 -36 -152 l0 -78
-159 0 -159 0 6 83 c33 421 350 771 772 853 101 20 307 12 410 -16z m-649
-395 c27 -8 71 -28 98 -45 l49 -32 71 24 c102 33 280 33 382 0 l72 -24 40 30
c45 32 144 67 167 59 25 -10 29 -76 11 -165 l-17 -83 37 -74 c35 -72 36 -77
32 -162 -4 -69 -10 -99 -30 -138 -50 -96 -144 -164 -279 -201 -91 -26 -367
-26 -458 0 -136 37 -240 114 -282 209 -19 41 -24 70 -24 138 0 80 3 92 36 157
l37 71 -14 58 c-22 92 -16 193 10 193 7 0 35 -7 62 -15z m-208 -591 c3 -20 -3
-21 -110 -28 -62 -4 -133 -11 -158 -15 -49 -10 -60 -3 -60 36 0 28 15 31 185
29 134 -1 140 -2 143 -22z m1525 20 c29 -5 37 -11 37 -28 0 -38 -12 -45 -60
-36 -25 5 -98 12 -162 16 -101 6 -118 9 -118 24 0 9 3 20 7 23 8 9 245 9 296
1z m-1470 -129 c54 -84 140 -143 272 -184 l84 -26 -18 -24 c-29 -38 -169 -55
-235 -27 -18 7 -50 35 -72 62 -94 115 -226 143 -226 47 0 -17 9 -33 27 -47 17
-12 46 -58 75 -121 67 -144 114 -175 268 -175 l72 0 0 -110 0 -110 -57 26
c-268 118 -470 352 -541 625 l-20 74 28 7 c36 10 180 25 255 27 l60 1 28 -45z
m1346 34 c162 -16 153 -9 129 -98 -67 -259 -248 -478 -498 -604 l-95 -48 -6
163 c-6 177 -20 233 -74 304 -14 19 -24 38 -21 43 3 5 23 12 43 16 55 10 171
68 220 109 22 20 54 56 70 81 26 42 31 45 72 45 25 0 97 -5 160 -11z m-678
-274 c16 -9 43 -34 59 -57 49 -67 60 -123 60 -294 l0 -152 -75 -11 c-96 -14
-204 -14 -300 0 l-75 11 0 154 c0 132 3 161 21 210 22 59 78 130 114 144 36
15 164 11 196 -5z m-489 -115 c48 0 88 -4 88 -9 0 -35 -13 -41 -90 -41 -115 0
-152 19 -174 88 -7 22 -6 21 40 -8 44 -28 55 -30 136 -30z"/>
</g>
</svg>
